<?xml version="1.0" encoding="utf-8"?>
<!-- Generator: Adobe Illustrator 27.3.1, SVG Export Plug-In . SVG Version: 6.00 Build 0)  -->
<svg version="1.1" id="Layer_1" xmlns="http://www.w3.org/2000/svg" xmlns:xlink="http://www.w3.org/1999/xlink" x="0px" y="0px"
	 viewBox="0 0 270 204.41" style="enable-background:new 0 0 270 204.41;" xml:space="preserve">
<style type="text/css">
	.st0{clip-path:url(#SVGID_00000008114869390420148810000007762424005228632995_);}
	.st1{fill:#49B5E6;}
	.st2{fill:#889098;}
	.st3{clip-path:url(#SVGID_00000006697207764171469480000001528665235250177175_);fill:#889098;}
	.st4{clip-path:url(#SVGID_00000008840256030224927620000007798493974291552645_);fill:#49B5E6;}
	.st5{clip-path:url(#SVGID_00000085941298516982712300000010839195299049977257_);fill:#49B5E6;}
	.st6{clip-path:url(#SVGID_00000030464201846667625530000009687760811923347361_);fill:#49B5E6;}
	.st7{clip-path:url(#SVGID_00000101100010993834321310000013221969389784568221_);fill:#49B5E6;}
	.st8{clip-path:url(#SVGID_00000079449327040847605370000011678993567379443362_);fill:#49B5E6;}
	.st9{clip-path:url(#SVGID_00000099630819277836220120000009934700249272050342_);fill:#49B5E6;}
</style>
<g>
	<defs>
		<rect id="SVGID_17_" x="-12.23" y="-20.2" width="301" height="241"/>
	</defs>
	<clipPath id="SVGID_00000031903528260723813510000000171165506806401214_">
		<use xlink:href="#SVGID_17_"  style="overflow:visible;"/>
	</clipPath>
	<g style="clip-path:url(#SVGID_00000031903528260723813510000000171165506806401214_);">
		<polygon class="st1" points="183,8.12 170.34,8.12 207.28,66.71 170.06,125.67 182.57,125.67 219.69,66.74 		"/>
		<polygon class="st2" points="259.71,8.12 246.91,8.12 221.03,48.97 227.4,58.71 		"/>
		<polygon class="st2" points="221.03,84.73 247.1,125.67 259.71,125.67 227.29,74.93 		"/>
		<g>
			<defs>
				<rect id="SVGID_19_" x="-435.7" y="-323.97" width="1280" height="800"/>
			</defs>
			<clipPath id="SVGID_00000162314353611473940530000017030396469008630185_">
				<use xlink:href="#SVGID_19_"  style="overflow:visible;"/>
			</clipPath>
			<path style="clip-path:url(#SVGID_00000162314353611473940530000017030396469008630185_);fill:#889098;" d="M37.77,87.96
				l38.44,0.02l-4.25-10.52H41.77l0.06-0.15L62.71,25.4c0.06,0.14,40.25,100.08,40.31,100.21c13.22,0.11,28.48,0.41,40.46-3.78
				c34.48-9.31,46.96-49.61,32.64-80.11C158.53,4.13,114.45,8.04,79.38,8.4l4.09,10.23c22.32,0.4,53.46-3.15,70.9,13.18
				c20.24,16.43,22.1,52.43,3.03,70.33c-11.95,11.34-29.85,13.69-46.89,13.12c-0.01-0.04-42.88-107.09-42.9-107.14h-9.79
				c-0.12,0.31-46.94,117.21-47.06,117.5h11.64L37.77,87.96z"/>
		</g>
		<path class="st1" d="M14.99,185.01l1.73-4.94h0.03l1.73,4.94H14.99z M15.43,177.66l-4.67,11.98h2.49l1.05-2.75h4.86l1.03,2.75
			h2.65l-4.7-11.98H15.43z"/>
		<g>
			<defs>
				<rect id="SVGID_21_" x="-435.7" y="-323.97" width="1280" height="800"/>
			</defs>
			<clipPath id="SVGID_00000073710841455309905630000010346134489293562533_">
				<use xlink:href="#SVGID_21_"  style="overflow:visible;"/>
			</clipPath>
			<path style="clip-path:url(#SVGID_00000073710841455309905630000010346134489293562533_);fill:#49B5E6;" d="M30.38,186.17
				c-0.06,0.34-0.17,0.65-0.31,0.93s-0.35,0.51-0.6,0.7c-0.25,0.18-0.56,0.28-0.94,0.28c-0.35,0-0.66-0.09-0.91-0.27
				c-0.26-0.18-0.47-0.41-0.63-0.69c-0.16-0.28-0.28-0.58-0.36-0.91s-0.12-0.64-0.12-0.95c0-0.32,0.04-0.65,0.11-0.98
				c0.07-0.34,0.19-0.65,0.35-0.92c0.16-0.28,0.37-0.51,0.64-0.69c0.26-0.18,0.58-0.27,0.96-0.27c0.38,0,0.69,0.09,0.94,0.26
				c0.25,0.18,0.44,0.4,0.58,0.68c0.14,0.28,0.24,0.58,0.3,0.91s0.08,0.65,0.08,0.96C30.47,185.51,30.44,185.83,30.38,186.17
				 M32.05,181.99c-0.29-0.42-0.67-0.76-1.15-1.01c-0.47-0.25-1.05-0.38-1.74-0.38c-0.56,0-1.06,0.11-1.5,0.32
				c-0.44,0.22-0.82,0.55-1.14,1.01h-0.03v-5.16h-2.3v12.86h2.24v-1.08h0.03c0.33,0.44,0.73,0.76,1.2,0.97
				c0.46,0.21,0.97,0.32,1.51,0.32c0.68,0,1.26-0.13,1.73-0.39c0.47-0.26,0.85-0.6,1.15-1.03c0.29-0.43,0.51-0.93,0.64-1.49
				c0.13-0.56,0.2-1.14,0.2-1.74c0-0.61-0.07-1.19-0.19-1.75C32.55,182.9,32.34,182.41,32.05,181.99"/>
			<path style="clip-path:url(#SVGID_00000073710841455309905630000010346134489293562533_);fill:#49B5E6;" d="M40.49,185.12
				c0,0.32-0.03,0.66-0.09,1.01c-0.06,0.35-0.17,0.66-0.32,0.95c-0.15,0.29-0.36,0.52-0.62,0.71c-0.26,0.18-0.59,0.28-0.99,0.28
				c-0.3,0-0.57-0.08-0.79-0.23c-0.23-0.15-0.39-0.37-0.5-0.65c-0.08-0.2-0.12-0.41-0.13-0.62c-0.01-0.21-0.02-0.43-0.04-0.64
				c-0.01-0.07-0.01-0.13-0.02-0.2c-0.01-0.07-0.01-0.13-0.01-0.2v-4.72h-2.3v5.58c0,0.48,0.06,0.94,0.18,1.36
				c0.12,0.42,0.3,0.79,0.54,1.1c0.25,0.31,0.56,0.56,0.93,0.74c0.38,0.18,0.83,0.27,1.35,0.27c0.58,0,1.12-0.12,1.62-0.36
				c0.5-0.24,0.92-0.59,1.28-1.04h0.03v1.2h2.18v-8.84h-2.29V185.12z"/>
			<path style="clip-path:url(#SVGID_00000073710841455309905630000010346134489293562533_);fill:#49B5E6;" d="M57.51,185.27
				c-0.19,0.5-0.46,0.93-0.8,1.3c-0.35,0.37-0.76,0.66-1.24,0.87c-0.48,0.21-1.02,0.31-1.61,0.31h-1.33v-8.2h1.33
				c0.59,0,1.13,0.11,1.62,0.31c0.48,0.21,0.9,0.5,1.25,0.86c0.35,0.37,0.61,0.8,0.8,1.3c0.19,0.5,0.28,1.04,0.28,1.62
				C57.8,184.23,57.7,184.77,57.51,185.27 M59.87,180.98c-0.16-0.42-0.37-0.81-0.64-1.17c-0.26-0.36-0.6-0.67-1-0.94
				c-0.34-0.22-0.69-0.4-1.07-0.56c-0.38-0.15-0.77-0.28-1.18-0.38c-0.4-0.1-0.81-0.17-1.22-0.21c-0.41-0.04-0.81-0.06-1.2-0.06
				h-3.44v11.98h3.28c1.02,0,1.96-0.1,2.81-0.31c0.85-0.21,1.58-0.55,2.18-1.02c0.61-0.47,1.08-1.09,1.42-1.85
				c0.34-0.76,0.51-1.7,0.51-2.81c0-0.45-0.03-0.91-0.1-1.36C60.14,181.83,60.03,181.4,59.87,180.98"/>
			<path style="clip-path:url(#SVGID_00000073710841455309905630000010346134489293562533_);fill:#49B5E6;" d="M69.72,181.59
				c-0.24-0.31-0.55-0.55-0.93-0.73c-0.38-0.18-0.84-0.26-1.37-0.26c-0.57,0-1.1,0.12-1.58,0.35s-0.88,0.58-1.2,1.06H64.6v-5.23
				h-2.3v12.86h2.3v-4.32c0-0.32,0.03-0.65,0.1-0.99c0.07-0.34,0.18-0.66,0.34-0.95c0.16-0.29,0.36-0.53,0.62-0.71
				c0.26-0.19,0.58-0.28,0.96-0.28c0.34,0,0.61,0.06,0.82,0.18c0.21,0.12,0.37,0.34,0.49,0.67c0.1,0.29,0.16,0.56,0.17,0.83
				c0.01,0.27,0.02,0.55,0.02,0.85v4.72h2.29v-5.58c0-0.49-0.06-0.95-0.17-1.37C70.13,182.27,69.96,181.9,69.72,181.59"/>
			<path style="clip-path:url(#SVGID_00000073710841455309905630000010346134489293562533_);fill:#49B5E6;" d="M77.96,185.61
				c0,0.33-0.04,0.65-0.12,0.96c-0.08,0.31-0.21,0.58-0.37,0.82c-0.17,0.24-0.38,0.43-0.65,0.57c-0.27,0.14-0.58,0.21-0.95,0.21
				c-0.17,0-0.34-0.02-0.51-0.05s-0.33-0.1-0.47-0.18c-0.14-0.09-0.25-0.2-0.34-0.33c-0.09-0.14-0.13-0.31-0.13-0.51
				c0-0.29,0.07-0.52,0.2-0.72c0.13-0.2,0.31-0.35,0.51-0.47c0.21-0.12,0.44-0.21,0.7-0.26c0.26-0.05,0.51-0.08,0.75-0.08h1.39
				V185.61z M80.05,184.23c0-1.23-0.32-2.14-0.95-2.73c-0.63-0.59-1.55-0.89-2.76-0.89c-0.56,0-1.1,0.06-1.62,0.17
				c-0.52,0.11-1.04,0.28-1.55,0.5l0.07,1.97c0.4-0.31,0.82-0.54,1.28-0.71c0.45-0.17,0.94-0.25,1.45-0.25
				c0.34,0,0.64,0.03,0.89,0.1c0.25,0.07,0.46,0.18,0.62,0.33c0.17,0.15,0.29,0.35,0.36,0.59c0.08,0.24,0.12,0.54,0.12,0.9
				c-0.18,0-0.36,0-0.55,0c-0.19,0-0.38,0-0.58,0c-0.39,0-0.78,0.01-1.18,0.04c-0.4,0.03-0.78,0.09-1.15,0.19
				c-0.37,0.1-0.71,0.24-1.03,0.43c-0.32,0.19-0.59,0.45-0.81,0.77c-0.17,0.25-0.28,0.5-0.35,0.77c-0.07,0.27-0.1,0.55-0.1,0.84
				c0,0.42,0.09,0.79,0.26,1.12s0.41,0.6,0.7,0.82c0.29,0.22,0.62,0.39,0.99,0.51c0.37,0.12,0.74,0.18,1.13,0.18
				c0.27,0,0.54-0.04,0.81-0.11s0.52-0.17,0.76-0.3c0.24-0.13,0.45-0.29,0.65-0.48c0.2-0.19,0.37-0.4,0.51-0.65h0.03
				c0,0.22,0.01,0.45,0.03,0.67c0.02,0.22,0.04,0.44,0.07,0.66h2.03c-0.06-0.91-0.1-1.81-0.11-2.7
				C80.06,186.04,80.05,185.14,80.05,184.23"/>
			<path style="clip-path:url(#SVGID_00000073710841455309905630000010346134489293562533_);fill:#49B5E6;" d="M88.51,186.17
				c-0.06,0.34-0.17,0.65-0.31,0.93s-0.35,0.51-0.6,0.7c-0.25,0.18-0.56,0.28-0.94,0.28c-0.35,0-0.66-0.09-0.91-0.27
				c-0.26-0.18-0.47-0.41-0.63-0.69c-0.16-0.28-0.28-0.58-0.36-0.91c-0.08-0.33-0.12-0.64-0.12-0.95c0-0.32,0.04-0.65,0.11-0.98
				c0.07-0.34,0.19-0.65,0.35-0.92c0.16-0.28,0.37-0.51,0.64-0.69c0.26-0.18,0.58-0.27,0.96-0.27c0.38,0,0.69,0.09,0.94,0.26
				c0.24,0.18,0.44,0.4,0.58,0.68c0.14,0.28,0.24,0.58,0.3,0.91c0.06,0.33,0.08,0.65,0.08,0.96
				C88.6,185.51,88.57,185.83,88.51,186.17 M90.18,181.99c-0.29-0.42-0.67-0.76-1.15-1.01c-0.47-0.25-1.06-0.38-1.74-0.38
				c-0.56,0-1.06,0.11-1.5,0.32c-0.44,0.22-0.82,0.55-1.14,1.01h-0.03v-5.16h-2.3v12.86h2.24v-1.08h0.03
				c0.34,0.44,0.73,0.76,1.2,0.97c0.46,0.21,0.97,0.32,1.51,0.32c0.68,0,1.26-0.13,1.73-0.39c0.47-0.26,0.85-0.6,1.15-1.03
				c0.29-0.43,0.51-0.93,0.64-1.49c0.13-0.56,0.2-1.14,0.2-1.74c0-0.61-0.07-1.19-0.19-1.75C90.68,182.9,90.47,182.41,90.18,181.99"
				/>
		</g>
		<rect x="92.84" y="180.8" class="st1" width="2.3" height="8.84"/>
		<rect x="92.84" y="177" class="st1" width="2.3" height="2.19"/>
		<g>
			<defs>
				<rect id="SVGID_23_" x="-435.7" y="-323.97" width="1280" height="800"/>
			</defs>
			<clipPath id="SVGID_00000029754063446673101550000005263352896677959357_">
				<use xlink:href="#SVGID_23_"  style="overflow:visible;"/>
			</clipPath>
			<path style="clip-path:url(#SVGID_00000029754063446673101550000005263352896677959357_);fill:#49B5E6;" d="M109.69,184.91
				c-0.13-0.31-0.3-0.58-0.51-0.82c-0.21-0.23-0.45-0.43-0.71-0.61c-0.26-0.18-0.54-0.33-0.83-0.46c-0.29-0.13-0.57-0.25-0.86-0.36
				c-0.29-0.11-0.56-0.22-0.81-0.33c-0.26-0.1-0.48-0.22-0.68-0.34c-0.2-0.12-0.35-0.26-0.47-0.42s-0.18-0.35-0.18-0.56
				c0-0.28,0.05-0.53,0.15-0.74c0.1-0.21,0.23-0.38,0.4-0.52c0.17-0.14,0.37-0.24,0.6-0.31c0.23-0.07,0.48-0.1,0.74-0.1
				c0.42,0,0.83,0.04,1.24,0.13c0.41,0.09,0.81,0.22,1.19,0.39l0.23-1.98c-0.47-0.15-0.94-0.26-1.42-0.33
				c-0.48-0.07-0.96-0.1-1.45-0.1c-0.5,0-1,0.06-1.5,0.19c-0.49,0.13-0.95,0.33-1.37,0.62c-0.23,0.16-0.43,0.34-0.6,0.56
				c-0.17,0.21-0.3,0.45-0.41,0.69c-0.11,0.25-0.18,0.51-0.23,0.78c-0.05,0.27-0.07,0.55-0.07,0.82c0,0.34,0.04,0.64,0.11,0.91
				c0.07,0.27,0.18,0.52,0.32,0.74c0.14,0.22,0.32,0.42,0.53,0.61c0.21,0.18,0.46,0.36,0.74,0.53c0.15,0.09,0.3,0.18,0.46,0.26
				c0.16,0.08,0.32,0.15,0.48,0.21c0.3,0.12,0.61,0.24,0.91,0.36c0.31,0.12,0.6,0.27,0.89,0.43c0.11,0.06,0.22,0.14,0.33,0.24
				c0.11,0.1,0.2,0.19,0.27,0.28c0.07,0.11,0.12,0.22,0.15,0.35c0.03,0.13,0.05,0.26,0.05,0.39c0,0.27-0.07,0.51-0.2,0.7
				c-0.13,0.19-0.3,0.35-0.51,0.48c-0.21,0.13-0.44,0.22-0.69,0.28c-0.25,0.06-0.49,0.09-0.72,0.09c-0.47,0-0.94-0.06-1.4-0.19
				s-0.9-0.31-1.31-0.54l-0.23,2.16c0.51,0.13,1.02,0.24,1.52,0.33c0.51,0.09,1.02,0.14,1.55,0.14c0.59,0,1.16-0.07,1.7-0.19
				c0.54-0.13,1.02-0.34,1.43-0.62c0.41-0.29,0.74-0.66,0.99-1.12c0.24-0.46,0.37-1.02,0.37-1.69c0-0.21-0.01-0.43-0.04-0.67
				C109.82,185.32,109.77,185.1,109.69,184.91"/>
			<path style="clip-path:url(#SVGID_00000029754063446673101550000005263352896677959357_);fill:#49B5E6;" d="M113.5,184.35
				c0.02-0.3,0.08-0.57,0.18-0.82c0.1-0.25,0.23-0.47,0.41-0.66c0.17-0.18,0.38-0.33,0.62-0.43c0.24-0.11,0.52-0.16,0.83-0.16
				c0.32,0,0.59,0.05,0.82,0.16c0.23,0.11,0.42,0.25,0.57,0.44c0.15,0.19,0.26,0.41,0.34,0.66c0.08,0.25,0.12,0.53,0.13,0.82H113.5z
				 M119.42,183.92c-0.06-0.33-0.15-0.65-0.26-0.96s-0.25-0.6-0.41-0.87c-0.18-0.29-0.39-0.52-0.65-0.72
				c-0.25-0.19-0.53-0.35-0.82-0.46c-0.3-0.11-0.61-0.2-0.93-0.24c-0.32-0.05-0.64-0.07-0.96-0.07c-0.69,0-1.29,0.12-1.81,0.37
				c-0.51,0.25-0.94,0.58-1.28,1s-0.59,0.92-0.76,1.48c-0.17,0.57-0.25,1.17-0.25,1.81c0,0.74,0.1,1.4,0.31,1.97
				c0.2,0.57,0.5,1.05,0.89,1.44c0.39,0.39,0.87,0.68,1.45,0.88s1.23,0.3,1.97,0.3c0.52,0,1.05-0.05,1.57-0.15
				c0.52-0.1,1.01-0.29,1.46-0.55v-1.88c-0.45,0.26-0.91,0.48-1.41,0.64c-0.49,0.17-1,0.25-1.52,0.25c-0.35,0-0.67-0.05-0.96-0.15
				c-0.3-0.1-0.55-0.25-0.77-0.44c-0.22-0.19-0.4-0.42-0.54-0.7c-0.14-0.28-0.22-0.59-0.25-0.94h6.11v-0.07
				c0-0.31-0.01-0.63-0.04-0.96C119.53,184.58,119.49,184.25,119.42,183.92"/>
			<path style="clip-path:url(#SVGID_00000029754063446673101550000005263352896677959357_);fill:#49B5E6;" d="M126.54,187.94
				c-0.32,0.08-0.62,0.12-0.91,0.12c-0.41,0-0.77-0.08-1.07-0.24c-0.3-0.16-0.55-0.37-0.74-0.64c-0.2-0.27-0.34-0.57-0.43-0.92
				c-0.09-0.35-0.14-0.71-0.14-1.08c0-0.36,0.05-0.71,0.14-1.05c0.09-0.33,0.23-0.63,0.43-0.89c0.19-0.26,0.43-0.47,0.73-0.62
				c0.29-0.16,0.64-0.23,1.04-0.23c0.27,0,0.53,0.02,0.8,0.06c0.27,0.04,0.52,0.13,0.76,0.26l0.21-1.82
				c-0.36-0.11-0.72-0.19-1.1-0.23c-0.38-0.04-0.75-0.06-1.13-0.06c-0.68,0-1.29,0.12-1.82,0.35c-0.53,0.23-0.98,0.55-1.34,0.96
				c-0.36,0.41-0.64,0.89-0.83,1.45c-0.19,0.56-0.29,1.17-0.29,1.82c0,0.68,0.1,1.3,0.29,1.87c0.19,0.57,0.47,1.06,0.84,1.48
				c0.37,0.42,0.83,0.74,1.37,0.97c0.54,0.23,1.17,0.35,1.87,0.35c0.37,0,0.76-0.02,1.16-0.06c0.4-0.04,0.78-0.12,1.14-0.23
				l-0.1-1.91C127.15,187.76,126.86,187.86,126.54,187.94"/>
			<path style="clip-path:url(#SVGID_00000029754063446673101550000005263352896677959357_);fill:#49B5E6;" d="M134.84,185.12
				c0,0.32-0.03,0.66-0.09,1.01c-0.06,0.35-0.17,0.66-0.32,0.95c-0.15,0.29-0.36,0.52-0.62,0.71c-0.26,0.18-0.59,0.28-0.99,0.28
				c-0.3,0-0.57-0.08-0.79-0.23c-0.23-0.15-0.39-0.37-0.5-0.65c-0.08-0.2-0.12-0.41-0.13-0.62c-0.01-0.21-0.02-0.43-0.04-0.64
				c-0.01-0.07-0.01-0.13-0.02-0.2c-0.01-0.07-0.01-0.13-0.01-0.2v-4.72h-2.3v5.58c0,0.48,0.06,0.94,0.18,1.36
				c0.12,0.42,0.3,0.79,0.54,1.1c0.25,0.31,0.56,0.56,0.93,0.74c0.38,0.18,0.83,0.27,1.35,0.27c0.58,0,1.12-0.12,1.62-0.36
				c0.5-0.24,0.92-0.59,1.28-1.04h0.03v1.2h2.18v-8.84h-2.29V185.12z"/>
			<path style="clip-path:url(#SVGID_00000029754063446673101550000005263352896677959357_);fill:#49B5E6;" d="M144.05,180.6
				c-0.32,0-0.63,0.07-0.92,0.21c-0.29,0.14-0.54,0.33-0.75,0.58c-0.18,0.21-0.34,0.43-0.48,0.66c-0.14,0.24-0.23,0.49-0.28,0.76
				h-0.03v-2.01h-2.04v8.84h2.3v-3.24c0-0.22,0-0.46,0.01-0.73c0.01-0.27,0.03-0.53,0.07-0.8c0.04-0.27,0.09-0.52,0.17-0.78
				c0.08-0.25,0.18-0.47,0.32-0.66c0.14-0.19,0.31-0.35,0.52-0.47c0.21-0.12,0.47-0.18,0.77-0.18c0.17,0,0.34,0.01,0.52,0.03
				c0.18,0.02,0.35,0.07,0.51,0.15v-2.31c-0.12-0.02-0.23-0.04-0.35-0.05C144.28,180.61,144.16,180.6,144.05,180.6"/>
		</g>
		<rect x="146.22" y="180.8" class="st1" width="2.3" height="8.84"/>
		<rect x="146.22" y="177" class="st1" width="2.3" height="2.19"/>
		<g>
			<defs>
				<rect id="SVGID_25_" x="-435.7" y="-323.97" width="1280" height="800"/>
			</defs>
			<clipPath id="SVGID_00000127018847455018372930000005148773997910898565_">
				<use xlink:href="#SVGID_25_"  style="overflow:visible;"/>
			</clipPath>
			<path style="clip-path:url(#SVGID_00000127018847455018372930000005148773997910898565_);fill:#49B5E6;" d="M155.62,188.01
				c-0.18,0.03-0.36,0.05-0.54,0.05c-0.2,0-0.37-0.04-0.51-0.12c-0.14-0.08-0.25-0.18-0.34-0.31c-0.08-0.13-0.14-0.28-0.18-0.44
				c-0.04-0.17-0.05-0.34-0.05-0.52v-4.19h2.04v-1.68H154v-2.5l-2.3,0.74v1.77H150v1.68h1.69v4.5c0,0.45,0.06,0.86,0.18,1.21
				s0.3,0.65,0.53,0.9c0.23,0.25,0.53,0.43,0.88,0.56c0.35,0.13,0.75,0.19,1.21,0.19c0.28,0,0.57-0.01,0.86-0.04
				c0.29-0.03,0.57-0.08,0.84-0.17l-0.07-1.82C155.97,187.92,155.8,187.98,155.62,188.01"/>
		</g>
		<rect x="157.66" y="180.8" class="st1" width="2.3" height="8.84"/>
		<rect x="157.66" y="177" class="st1" width="2.3" height="2.19"/>
		<g>
			<defs>
				<rect id="SVGID_27_" x="-435.7" y="-323.97" width="1280" height="800"/>
			</defs>
			<clipPath id="SVGID_00000143617681576212554110000017035945008902300292_">
				<use xlink:href="#SVGID_27_"  style="overflow:visible;"/>
			</clipPath>
			<path style="clip-path:url(#SVGID_00000143617681576212554110000017035945008902300292_);fill:#49B5E6;" d="M164.01,184.35
				c0.02-0.3,0.08-0.57,0.18-0.82s0.23-0.47,0.41-0.66c0.17-0.18,0.38-0.33,0.62-0.43c0.24-0.11,0.52-0.16,0.83-0.16
				c0.32,0,0.59,0.05,0.82,0.16c0.23,0.11,0.42,0.25,0.57,0.44c0.15,0.19,0.26,0.41,0.34,0.66c0.08,0.25,0.12,0.53,0.13,0.82H164.01
				z M169.94,183.92c-0.06-0.33-0.15-0.65-0.26-0.96s-0.25-0.6-0.41-0.87c-0.18-0.29-0.39-0.52-0.65-0.72
				c-0.25-0.19-0.53-0.35-0.82-0.46c-0.3-0.11-0.61-0.2-0.93-0.24c-0.32-0.05-0.64-0.07-0.96-0.07c-0.69,0-1.29,0.12-1.81,0.37
				c-0.51,0.25-0.94,0.58-1.28,1s-0.59,0.92-0.76,1.48c-0.17,0.57-0.25,1.17-0.25,1.81c0,0.74,0.1,1.4,0.31,1.97
				c0.2,0.57,0.5,1.05,0.89,1.44c0.39,0.39,0.87,0.68,1.45,0.88s1.23,0.3,1.97,0.3c0.52,0,1.05-0.05,1.57-0.15
				c0.52-0.1,1.01-0.29,1.47-0.55v-1.88c-0.45,0.26-0.92,0.48-1.41,0.64c-0.49,0.17-1,0.25-1.53,0.25c-0.35,0-0.67-0.05-0.96-0.15
				c-0.3-0.1-0.55-0.25-0.77-0.44c-0.22-0.19-0.4-0.42-0.54-0.7c-0.14-0.28-0.22-0.59-0.25-0.94h6.11v-0.07
				c0-0.31-0.01-0.63-0.04-0.96C170.05,184.58,170,184.25,169.94,183.92"/>
			<path style="clip-path:url(#SVGID_00000143617681576212554110000017035945008902300292_);fill:#49B5E6;" d="M177.13,185.21
				c-0.19-0.2-0.4-0.36-0.64-0.48c-0.24-0.12-0.48-0.23-0.74-0.32c-0.25-0.09-0.5-0.16-0.74-0.23c-0.24-0.07-0.45-0.14-0.64-0.22
				c-0.19-0.08-0.34-0.17-0.45-0.28c-0.11-0.11-0.17-0.25-0.17-0.42c0-0.19,0.04-0.35,0.13-0.47c0.08-0.12,0.19-0.23,0.32-0.3
				c0.13-0.08,0.27-0.13,0.43-0.16c0.16-0.03,0.32-0.05,0.48-0.05c0.37,0,0.72,0.03,1.04,0.09c0.32,0.06,0.66,0.15,1.01,0.29
				l0.15-1.73c-0.42-0.11-0.83-0.19-1.24-0.25c-0.41-0.05-0.83-0.08-1.26-0.08c-0.43,0-0.85,0.05-1.27,0.15
				c-0.42,0.1-0.79,0.27-1.11,0.49c-0.32,0.22-0.58,0.5-0.78,0.85c-0.2,0.35-0.3,0.76-0.3,1.25c0,0.35,0.05,0.64,0.14,0.89
				c0.09,0.25,0.21,0.46,0.36,0.64c0.15,0.18,0.33,0.33,0.53,0.44c0.2,0.12,0.41,0.22,0.63,0.31c0.22,0.08,0.44,0.15,0.66,0.21
				c0.22,0.06,0.43,0.12,0.63,0.18c0.2,0.07,0.37,0.13,0.53,0.21c0.15,0.08,0.28,0.17,0.37,0.29c0.06,0.08,0.1,0.17,0.13,0.27
				c0.02,0.1,0.03,0.2,0.03,0.3c0,0.2-0.05,0.36-0.14,0.5c-0.09,0.14-0.21,0.25-0.36,0.34c-0.15,0.09-0.31,0.15-0.48,0.19
				c-0.18,0.04-0.35,0.06-0.51,0.06c-0.8,0-1.56-0.2-2.28-0.59l-0.14,1.89c0.43,0.12,0.86,0.21,1.29,0.28
				c0.44,0.07,0.87,0.1,1.32,0.1c0.46,0,0.91-0.05,1.35-0.15c0.44-0.1,0.84-0.27,1.19-0.5c0.35-0.23,0.63-0.53,0.85-0.89
				c0.21-0.37,0.32-0.81,0.32-1.34c0-0.41-0.06-0.75-0.17-1.04C177.47,185.64,177.32,185.4,177.13,185.21"/>
		</g>
		<polygon class="st1" points="186.91,184.39 191.18,184.39 191.18,182.5 186.91,182.5 186.91,179.55 191.58,179.55 191.58,177.66 
			184.51,177.66 184.51,189.64 191.61,189.64 191.61,187.75 186.91,187.75 		"/>
		<polygon class="st1" points="201.7,180.8 199.26,180.8 197.57,183.68 195.83,180.8 193.12,180.8 195.85,185.01 192.81,189.64 
			195.33,189.64 197.32,186.35 199.3,189.64 202.04,189.64 199.06,185.01 		"/>
		<g>
			<defs>
				<rect id="SVGID_29_" x="-435.7" y="-323.97" width="1280" height="800"/>
			</defs>
			<clipPath id="SVGID_00000130621591767098172060000014691476146773308298_">
				<use xlink:href="#SVGID_29_"  style="overflow:visible;"/>
			</clipPath>
			<path style="clip-path:url(#SVGID_00000130621591767098172060000014691476146773308298_);fill:#49B5E6;" d="M208.51,187.94
				c-0.32,0.08-0.62,0.12-0.91,0.12c-0.41,0-0.77-0.08-1.07-0.24c-0.3-0.16-0.55-0.37-0.74-0.64c-0.2-0.27-0.34-0.57-0.43-0.92
				c-0.09-0.35-0.14-0.71-0.14-1.08c0-0.36,0.05-0.71,0.14-1.05c0.09-0.33,0.24-0.63,0.43-0.89c0.19-0.26,0.43-0.47,0.73-0.62
				c0.29-0.16,0.64-0.23,1.04-0.23c0.27,0,0.53,0.02,0.8,0.06c0.27,0.04,0.52,0.13,0.76,0.26l0.21-1.82
				c-0.36-0.11-0.72-0.19-1.1-0.23c-0.38-0.04-0.75-0.06-1.13-0.06c-0.68,0-1.29,0.12-1.82,0.35c-0.53,0.23-0.98,0.55-1.34,0.96
				c-0.36,0.41-0.64,0.89-0.83,1.45c-0.19,0.56-0.28,1.17-0.28,1.82c0,0.68,0.09,1.3,0.28,1.87c0.19,0.57,0.47,1.06,0.84,1.48
				c0.37,0.42,0.83,0.74,1.37,0.97c0.54,0.23,1.17,0.35,1.87,0.35c0.37,0,0.76-0.02,1.16-0.06c0.4-0.04,0.78-0.12,1.14-0.23
				l-0.1-1.91C209.12,187.76,208.84,187.86,208.51,187.94"/>
			<path style="clip-path:url(#SVGID_00000130621591767098172060000014691476146773308298_);fill:#49B5E6;" d="M218.41,181.59
				c-0.24-0.31-0.55-0.55-0.93-0.73c-0.38-0.18-0.84-0.26-1.37-0.26c-0.57,0-1.1,0.12-1.58,0.35c-0.48,0.23-0.88,0.58-1.2,1.06
				h-0.03v-5.23h-2.3v12.86h2.3v-4.32c0-0.32,0.03-0.65,0.1-0.99c0.07-0.34,0.18-0.66,0.34-0.95c0.16-0.29,0.36-0.53,0.62-0.71
				c0.26-0.19,0.58-0.28,0.96-0.28c0.34,0,0.61,0.06,0.82,0.18c0.21,0.12,0.37,0.34,0.48,0.67c0.1,0.29,0.16,0.56,0.17,0.83
				s0.02,0.55,0.02,0.85v4.72h2.29v-5.58c0-0.49-0.06-0.95-0.17-1.37C218.83,182.27,218.65,181.9,218.41,181.59"/>
			<path style="clip-path:url(#SVGID_00000130621591767098172060000014691476146773308298_);fill:#49B5E6;" d="M226.66,185.61
				c0,0.33-0.04,0.65-0.12,0.96c-0.08,0.31-0.21,0.58-0.37,0.82c-0.17,0.24-0.38,0.43-0.65,0.57c-0.27,0.14-0.58,0.21-0.95,0.21
				c-0.17,0-0.34-0.02-0.51-0.05c-0.17-0.04-0.33-0.1-0.47-0.18c-0.14-0.09-0.25-0.2-0.34-0.33c-0.09-0.14-0.13-0.31-0.13-0.51
				c0-0.29,0.07-0.52,0.2-0.72c0.13-0.2,0.31-0.35,0.52-0.47c0.21-0.12,0.44-0.21,0.7-0.26s0.51-0.08,0.75-0.08h1.39V185.61z
				 M228.75,184.23c0-1.23-0.32-2.14-0.95-2.73c-0.63-0.59-1.55-0.89-2.76-0.89c-0.56,0-1.1,0.06-1.62,0.17
				c-0.53,0.11-1.04,0.28-1.55,0.5l0.08,1.97c0.4-0.31,0.82-0.54,1.28-0.71c0.46-0.17,0.94-0.25,1.45-0.25
				c0.34,0,0.64,0.03,0.89,0.1c0.25,0.07,0.46,0.18,0.62,0.33c0.17,0.15,0.29,0.35,0.36,0.59c0.08,0.24,0.12,0.54,0.12,0.9
				c-0.18,0-0.36,0-0.55,0c-0.19,0-0.38,0-0.58,0c-0.39,0-0.78,0.01-1.18,0.04c-0.4,0.03-0.78,0.09-1.15,0.19
				c-0.37,0.1-0.71,0.24-1.03,0.43c-0.32,0.19-0.59,0.45-0.81,0.77c-0.17,0.25-0.28,0.5-0.35,0.77c-0.06,0.27-0.1,0.55-0.1,0.84
				c0,0.42,0.09,0.79,0.26,1.12c0.18,0.33,0.41,0.6,0.7,0.82c0.29,0.22,0.62,0.39,0.99,0.51c0.37,0.12,0.74,0.18,1.13,0.18
				c0.27,0,0.54-0.04,0.81-0.11s0.52-0.17,0.76-0.3c0.24-0.13,0.45-0.29,0.65-0.48c0.2-0.19,0.37-0.4,0.51-0.65h0.03
				c0,0.22,0.01,0.45,0.03,0.67c0.02,0.22,0.04,0.44,0.07,0.66h2.03c-0.06-0.91-0.1-1.81-0.11-2.7
				C228.76,186.04,228.75,185.14,228.75,184.23"/>
			<path style="clip-path:url(#SVGID_00000130621591767098172060000014691476146773308298_);fill:#49B5E6;" d="M238.43,181.59
				c-0.24-0.31-0.55-0.55-0.93-0.72c-0.38-0.18-0.84-0.26-1.37-0.26c-0.61,0-1.15,0.11-1.63,0.34c-0.48,0.23-0.9,0.58-1.27,1.06
				h-0.04v-1.21h-2.18v8.84h2.3v-4.32c0-0.32,0.03-0.65,0.1-0.99c0.07-0.34,0.18-0.66,0.34-0.95c0.16-0.29,0.36-0.53,0.62-0.71
				c0.26-0.19,0.58-0.28,0.96-0.28c0.34,0,0.61,0.06,0.82,0.18c0.21,0.12,0.37,0.35,0.48,0.67c0.1,0.29,0.16,0.56,0.17,0.83
				c0.01,0.27,0.02,0.55,0.02,0.85v4.71h2.29v-5.58c0-0.49-0.06-0.95-0.17-1.37C238.85,182.26,238.67,181.9,238.43,181.59"/>
			<path style="clip-path:url(#SVGID_00000130621591767098172060000014691476146773308298_);fill:#49B5E6;" d="M247.21,186.1
				c-0.07,0.33-0.18,0.62-0.33,0.88c-0.16,0.26-0.36,0.47-0.62,0.63c-0.26,0.16-0.58,0.24-0.97,0.24c-0.33,0-0.63-0.09-0.87-0.27
				c-0.25-0.18-0.45-0.4-0.61-0.67s-0.28-0.57-0.35-0.88c-0.08-0.32-0.12-0.62-0.12-0.9c0-0.32,0.04-0.65,0.1-0.98
				c0.07-0.33,0.19-0.62,0.35-0.88c0.16-0.26,0.37-0.48,0.64-0.64c0.26-0.16,0.59-0.24,0.97-0.24c0.38,0,0.69,0.08,0.94,0.25
				c0.25,0.17,0.44,0.38,0.59,0.65c0.15,0.27,0.25,0.56,0.3,0.88c0.06,0.33,0.09,0.64,0.09,0.96
				C247.31,185.45,247.28,185.78,247.21,186.1 M247.41,182.01h-0.03c-0.33-0.49-0.72-0.84-1.17-1.07c-0.45-0.23-0.96-0.34-1.54-0.34
				s-1.12,0.12-1.62,0.36c-0.5,0.24-0.91,0.61-1.23,1.11c-0.31,0.48-0.53,0.98-0.67,1.49c-0.14,0.51-0.21,1.05-0.21,1.62
				c0,0.58,0.07,1.14,0.2,1.68c0.13,0.54,0.34,1.01,0.62,1.42c0.29,0.41,0.66,0.74,1.11,0.99c0.46,0.25,1.01,0.37,1.67,0.37
				c0.26,0,0.52-0.03,0.79-0.08c0.27-0.05,0.53-0.14,0.78-0.26c0.25-0.12,0.47-0.26,0.67-0.44c0.2-0.18,0.37-0.38,0.5-0.62h0.04
				c0,0.2,0,0.39-0.01,0.58c-0.01,0.19-0.02,0.39-0.03,0.58c-0.03,0.39-0.12,0.73-0.26,1.01c-0.14,0.29-0.32,0.52-0.54,0.71
				c-0.23,0.19-0.49,0.33-0.8,0.41c-0.31,0.09-0.65,0.13-1.02,0.13c-0.17,0-0.38-0.02-0.61-0.08c-0.23-0.05-0.47-0.11-0.7-0.19
				c-0.24-0.07-0.47-0.16-0.69-0.25c-0.22-0.09-0.41-0.18-0.57-0.26l-0.19,1.95c0.49,0.18,0.98,0.32,1.48,0.44
				c0.5,0.11,1.01,0.17,1.52,0.17c1.55,0,2.73-0.39,3.52-1.16c0.8-0.77,1.2-1.94,1.2-3.51v-7.98h-2.19V182.01z"/>
			<path style="clip-path:url(#SVGID_00000130621591767098172060000014691476146773308298_);fill:#49B5E6;" d="M253.6,184.35
				c0.02-0.3,0.08-0.57,0.18-0.82s0.23-0.47,0.41-0.66c0.17-0.18,0.38-0.33,0.62-0.43c0.24-0.11,0.52-0.16,0.83-0.16
				c0.32,0,0.59,0.05,0.82,0.16c0.23,0.11,0.42,0.25,0.57,0.44c0.15,0.19,0.26,0.41,0.34,0.66c0.08,0.25,0.12,0.53,0.13,0.82H253.6z
				 M259.53,183.92c-0.06-0.33-0.15-0.65-0.26-0.96s-0.25-0.6-0.41-0.87c-0.18-0.29-0.39-0.52-0.65-0.72
				c-0.25-0.19-0.53-0.35-0.82-0.46c-0.3-0.11-0.61-0.2-0.93-0.24c-0.32-0.05-0.64-0.07-0.96-0.07c-0.69,0-1.29,0.12-1.81,0.37
				c-0.51,0.25-0.94,0.58-1.28,1s-0.59,0.92-0.76,1.48c-0.17,0.57-0.25,1.17-0.25,1.81c0,0.74,0.1,1.4,0.31,1.97
				c0.2,0.57,0.5,1.05,0.89,1.44c0.39,0.39,0.87,0.68,1.45,0.88s1.23,0.3,1.97,0.3c0.52,0,1.05-0.05,1.57-0.15
				c0.52-0.1,1.01-0.29,1.47-0.55v-1.88c-0.45,0.26-0.92,0.48-1.41,0.64c-0.49,0.17-1,0.25-1.53,0.25c-0.35,0-0.67-0.05-0.96-0.15
				c-0.3-0.1-0.55-0.25-0.77-0.44c-0.22-0.19-0.4-0.42-0.54-0.7c-0.14-0.28-0.22-0.59-0.25-0.94h6.11v-0.07
				c0-0.31-0.01-0.63-0.04-0.96C259.64,184.58,259.59,184.25,259.53,183.92"/>
			<path style="clip-path:url(#SVGID_00000130621591767098172060000014691476146773308298_);fill:#49B5E6;" d="M17.99,152.81
				c-0.14-0.06-0.29-0.09-0.46-0.09c-0.16,0-0.32,0.03-0.46,0.09c-0.14,0.06-0.26,0.15-0.37,0.25s-0.19,0.23-0.25,0.37
				c-0.06,0.14-0.09,0.29-0.09,0.46c0,0.16,0.03,0.32,0.09,0.46c0.06,0.14,0.15,0.26,0.25,0.37c0.11,0.11,0.23,0.19,0.37,0.25
				c0.14,0.06,0.29,0.09,0.46,0.09c0.16,0,0.32-0.03,0.46-0.09c0.14-0.06,0.26-0.14,0.37-0.25c0.11-0.11,0.19-0.23,0.25-0.37
				c0.06-0.14,0.09-0.29,0.09-0.46c0-0.17-0.03-0.32-0.09-0.46c-0.06-0.14-0.14-0.26-0.25-0.37
				C18.25,152.95,18.13,152.87,17.99,152.81"/>
			<path style="clip-path:url(#SVGID_00000130621591767098172060000014691476146773308298_);fill:#49B5E6;" d="M15.24,152.81
				c-0.14-0.06-0.29-0.09-0.46-0.09c-0.17,0-0.32,0.03-0.46,0.09c-0.14,0.06-0.26,0.15-0.37,0.25s-0.19,0.23-0.25,0.37
				c-0.06,0.14-0.09,0.29-0.09,0.46c0,0.16,0.03,0.32,0.09,0.46c0.06,0.14,0.14,0.26,0.25,0.37c0.11,0.11,0.23,0.19,0.37,0.25
				c0.14,0.06,0.29,0.09,0.46,0.09c0.16,0,0.32-0.03,0.46-0.09c0.14-0.06,0.26-0.14,0.37-0.25c0.11-0.11,0.19-0.23,0.25-0.37
				c0.06-0.14,0.09-0.29,0.09-0.46c0-0.17-0.03-0.32-0.09-0.46c-0.06-0.14-0.14-0.26-0.25-0.37
				C15.5,152.95,15.38,152.87,15.24,152.81"/>
			<path style="clip-path:url(#SVGID_00000130621591767098172060000014691476146773308298_);fill:#49B5E6;" d="M34.13,167.11
				c-0.11-0.11-0.23-0.19-0.37-0.25c-0.14-0.06-0.29-0.09-0.46-0.09c-0.17,0-0.32,0.03-0.46,0.09c-0.14,0.06-0.26,0.14-0.37,0.25
				c-0.11,0.11-0.19,0.23-0.25,0.37c-0.06,0.14-0.09,0.29-0.09,0.46c0,0.16,0.03,0.32,0.09,0.46c0.06,0.14,0.14,0.26,0.25,0.37
				s0.23,0.19,0.37,0.25c0.14,0.06,0.29,0.09,0.46,0.09c0.16,0,0.32-0.03,0.46-0.09c0.14-0.06,0.26-0.15,0.37-0.25
				c0.11-0.11,0.19-0.23,0.25-0.37c0.06-0.14,0.09-0.29,0.09-0.46c0-0.17-0.03-0.32-0.09-0.46
				C34.32,167.34,34.24,167.21,34.13,167.11"/>
			<path style="clip-path:url(#SVGID_00000130621591767098172060000014691476146773308298_);fill:#49B5E6;" d="M31.02,166.86
				c-0.14-0.06-0.29-0.09-0.46-0.09c-0.17,0-0.32,0.03-0.46,0.09c-0.14,0.06-0.26,0.15-0.37,0.25c-0.11,0.11-0.19,0.23-0.25,0.37
				c-0.06,0.14-0.09,0.29-0.09,0.46c0,0.16,0.03,0.32,0.09,0.46c0.06,0.14,0.14,0.26,0.25,0.37s0.23,0.19,0.37,0.25
				c0.14,0.06,0.29,0.09,0.46,0.09c0.16,0,0.32-0.03,0.46-0.09c0.14-0.06,0.26-0.14,0.37-0.25c0.11-0.11,0.19-0.23,0.25-0.37
				c0.06-0.14,0.09-0.29,0.09-0.46c0-0.17-0.03-0.32-0.09-0.46c-0.06-0.14-0.14-0.26-0.25-0.37C31.28,167,31.16,166.92,31.02,166.86
				"/>
			<path style="clip-path:url(#SVGID_00000130621591767098172060000014691476146773308298_);fill:#49B5E6;" d="M13.29,160.7
				c0.16-0.24,0.39-0.46,0.7-0.65c0.3-0.19,0.66-0.36,1.08-0.51c0.42-0.15,0.89-0.28,1.42-0.39v3.1c-0.24,0.16-0.53,0.29-0.85,0.38
				c-0.32,0.1-0.66,0.15-1.01,0.15c-0.19,0-0.38-0.02-0.57-0.06c-0.19-0.04-0.36-0.11-0.51-0.22c-0.15-0.1-0.27-0.23-0.37-0.4
				c-0.09-0.17-0.14-0.37-0.14-0.6C13.04,161.21,13.12,160.94,13.29,160.7 M11.93,163.99c0.34,0.24,0.72,0.41,1.14,0.53
				s0.84,0.17,1.24,0.17c0.41,0,0.8-0.04,1.17-0.13c0.37-0.09,0.76-0.23,1.15-0.44c0.08,0.16,0.19,0.32,0.32,0.46
				c0.13,0.14,0.31,0.27,0.52,0.38c0.21,0.11,0.46,0.19,0.76,0.26c0.3,0.06,0.66,0.1,1.07,0.1h9.42h0.07h1.78
				c0.46,0,0.84-0.07,1.16-0.2c0.32-0.13,0.58-0.32,0.8-0.55c0.33,0.23,0.71,0.41,1.14,0.54c0.43,0.14,0.95,0.21,1.56,0.21h0.04
				h0.06h4.49v-13.15h-2.38v11.15h-2.11h-0.06h-0.01c-0.37,0-0.73-0.03-1.08-0.09c-0.34-0.06-0.67-0.15-0.96-0.27
				c0.01-0.1,0.02-0.21,0.03-0.32s0.01-0.21,0.01-0.33v-4.48h-2.38v4.16c0,0.26-0.02,0.47-0.06,0.64c-0.04,0.17-0.11,0.31-0.2,0.41
				c-0.09,0.1-0.2,0.17-0.35,0.22c-0.14,0.04-0.32,0.06-0.52,0.06H28.8h-0.07h-9c-0.19,0-0.34-0.02-0.45-0.06
				c-0.11-0.04-0.2-0.1-0.27-0.19c-0.06-0.09-0.11-0.2-0.13-0.35c-0.02-0.14-0.03-0.33-0.03-0.55v-5.91h-2.36v1.03
				c-0.35,0.08-0.74,0.19-1.16,0.31c-0.42,0.12-0.84,0.27-1.27,0.44c-0.42,0.17-0.83,0.38-1.23,0.61c-0.39,0.23-0.74,0.5-1.05,0.8
				c-0.31,0.3-0.55,0.64-0.74,1.01c-0.18,0.38-0.27,0.8-0.27,1.26c0,0.53,0.11,0.98,0.33,1.35
				C11.31,163.45,11.58,163.75,11.93,163.99"/>
			<path style="clip-path:url(#SVGID_00000130621591767098172060000014691476146773308298_);fill:#49B5E6;" d="M49.87,162.73
				c0.08-0.4,0.19-0.78,0.33-1.16c0.14-0.38,0.31-0.71,0.5-1.01c0.19-0.29,0.41-0.53,0.66-0.71c0.25-0.18,0.52-0.27,0.81-0.27
				c0.31,0,0.58,0.07,0.81,0.22c0.23,0.14,0.43,0.32,0.59,0.54c0.16,0.21,0.28,0.44,0.36,0.69c0.08,0.25,0.12,0.48,0.12,0.69
				c0,0.32-0.04,0.59-0.14,0.81c-0.09,0.22-0.22,0.4-0.4,0.54c-0.17,0.14-0.38,0.24-0.63,0.3c-0.24,0.06-0.52,0.1-0.81,0.1
				c-0.2,0-0.41-0.02-0.64-0.07c-0.22-0.04-0.44-0.1-0.65-0.17c-0.21-0.07-0.39-0.15-0.56-0.23
				C50.07,162.89,49.95,162.81,49.87,162.73 M51.36,165.3c0.34,0.07,0.72,0.11,1.16,0.11c0.62,0,1.17-0.11,1.64-0.32
				c0.47-0.21,0.87-0.5,1.19-0.85c0.17,0.16,0.36,0.3,0.56,0.43c0.21,0.13,0.43,0.24,0.69,0.34c0.25,0.1,0.53,0.17,0.84,0.22
				c0.3,0.05,0.64,0.08,1.01,0.08h0.03h0.07h4.48v-13.15h-2.38v11.15h-2.1h-0.07c-0.44,0-0.86-0.04-1.26-0.12
				c-0.4-0.08-0.76-0.21-1.08-0.39c0.05-0.17,0.09-0.34,0.11-0.52c0.02-0.18,0.04-0.35,0.04-0.53c0-0.3-0.03-0.61-0.1-0.93
				c-0.07-0.32-0.18-0.63-0.32-0.93c-0.14-0.3-0.32-0.59-0.54-0.86c-0.22-0.27-0.47-0.5-0.77-0.7c-0.3-0.2-0.63-0.36-1-0.48
				c-0.37-0.12-0.78-0.18-1.24-0.18c-0.32,0-0.67,0.06-1.07,0.17c-0.39,0.11-0.79,0.34-1.2,0.67c-0.41,0.33-0.81,0.81-1.19,1.42
				c-0.38,0.61-0.73,1.42-1.02,2.41c-0.1,0.34-0.27,0.58-0.49,0.74c-0.23,0.16-0.49,0.24-0.79,0.24h-0.4h-0.04h-0.41
				c-0.18,0-0.34-0.02-0.48-0.07c-0.14-0.05-0.25-0.13-0.34-0.24c-0.09-0.12-0.15-0.27-0.2-0.47c-0.05-0.2-0.07-0.45-0.07-0.76v-9.6
				h-2.38v10.1c0,0.45,0.05,0.87,0.16,1.24c0.11,0.38,0.28,0.69,0.52,0.96c0.23,0.27,0.53,0.47,0.9,0.62
				c0.36,0.15,0.8,0.22,1.31,0.22h0.99h0.04h0.69c1.04,0,1.82-0.38,2.36-1.14c0.17,0.15,0.35,0.29,0.55,0.44
				c0.2,0.15,0.44,0.28,0.71,0.4C50.71,165.13,51.02,165.23,51.36,165.3"/>
		</g>
		<rect x="65.4" y="152.17" class="st1" width="2.38" height="13.15"/>
		<g>
			<defs>
				<rect id="SVGID_31_" x="-435.7" y="-323.97" width="1280" height="800"/>
			</defs>
			<clipPath id="SVGID_00000001663362611204886110000000452302833573546939_">
				<use xlink:href="#SVGID_31_"  style="overflow:visible;"/>
			</clipPath>
			<path style="clip-path:url(#SVGID_00000001663362611204886110000000452302833573546939_);fill:#49B5E6;" d="M81.87,153.28
				c-0.14-0.06-0.29-0.09-0.46-0.09c-0.16,0-0.32,0.03-0.46,0.09c-0.14,0.06-0.26,0.15-0.37,0.25c-0.11,0.11-0.19,0.23-0.25,0.37
				c-0.06,0.14-0.09,0.29-0.09,0.46c0,0.16,0.03,0.32,0.09,0.46c0.06,0.14,0.15,0.26,0.25,0.37s0.23,0.19,0.37,0.25
				c0.14,0.06,0.29,0.09,0.46,0.09c0.16,0,0.32-0.03,0.46-0.09c0.14-0.06,0.26-0.14,0.37-0.25c0.11-0.11,0.19-0.23,0.25-0.37
				c0.06-0.14,0.09-0.29,0.09-0.46c0-0.17-0.03-0.32-0.09-0.46c-0.06-0.14-0.14-0.26-0.25-0.37
				C82.14,153.43,82.01,153.34,81.87,153.28"/>
			<path style="clip-path:url(#SVGID_00000001663362611204886110000000452302833573546939_);fill:#49B5E6;" d="M84.29,163.2
				c-0.1,0.02-0.21,0.05-0.32,0.06c-0.11,0.02-0.23,0.03-0.35,0.05c-0.12,0.01-0.23,0.02-0.34,0.02c-0.38,0-0.7-0.05-0.97-0.15
				c-0.27-0.1-0.49-0.24-0.67-0.42c-0.17-0.18-0.3-0.38-0.38-0.62c-0.08-0.23-0.12-0.48-0.12-0.74c0-0.3,0.04-0.57,0.13-0.82
				c0.09-0.25,0.21-0.46,0.36-0.64c0.15-0.18,0.33-0.31,0.53-0.41c0.21-0.1,0.42-0.15,0.66-0.15c0.21,0,0.42,0.04,0.63,0.12
				c0.21,0.08,0.39,0.23,0.55,0.45c0.16,0.22,0.29,0.53,0.39,0.92c0.1,0.39,0.15,0.9,0.15,1.53v0.7
				C84.48,163.15,84.39,163.18,84.29,163.2 M85,169.34c0.6-0.54,1.07-1.2,1.41-2c0.34-0.8,0.51-1.72,0.51-2.77v-2.67
				c0-0.6-0.06-1.12-0.17-1.58c-0.11-0.45-0.27-0.84-0.46-1.17c-0.19-0.33-0.42-0.6-0.67-0.81c-0.25-0.21-0.52-0.38-0.8-0.51
				s-0.57-0.21-0.86-0.26c-0.29-0.05-0.57-0.07-0.84-0.07c-0.66,0-1.26,0.1-1.79,0.31c-0.53,0.21-0.99,0.49-1.36,0.86
				c-0.38,0.36-0.66,0.79-0.87,1.28c-0.2,0.49-0.3,1.02-0.3,1.58c0,0.45,0.08,0.9,0.23,1.36c0.15,0.46,0.4,0.86,0.73,1.23
				c0.34,0.36,0.77,0.66,1.3,0.89s1.18,0.34,1.95,0.34c0.21,0,0.45-0.01,0.72-0.04c0.27-0.02,0.54-0.08,0.81-0.16
				c0,0.65-0.11,1.22-0.32,1.7c-0.22,0.48-0.51,0.88-0.89,1.2c-0.38,0.32-0.82,0.55-1.34,0.71c-0.52,0.15-1.07,0.23-1.66,0.23
				c-0.63,0-1.18-0.08-1.65-0.25c-0.47-0.16-0.87-0.39-1.18-0.69s-0.55-0.64-0.71-1.05c-0.16-0.41-0.24-0.85-0.24-1.33
				c0-0.23,0.02-0.46,0.05-0.69c0.03-0.23,0.07-0.47,0.13-0.7s0.12-0.45,0.21-0.65c0.08-0.2,0.18-0.39,0.28-0.54L75.31,162
				c-0.18,0.27-0.34,0.57-0.49,0.89c-0.15,0.32-0.28,0.65-0.39,0.99c-0.11,0.34-0.2,0.68-0.26,1.01c-0.06,0.34-0.09,0.66-0.09,0.98
				c0,0.74,0.13,1.43,0.39,2.05c0.26,0.62,0.64,1.16,1.16,1.61c0.51,0.45,1.15,0.8,1.92,1.05c0.77,0.25,1.65,0.38,2.66,0.38
				c0.95,0,1.84-0.14,2.66-0.41C83.69,170.28,84.4,169.87,85,169.34"/>
			<path style="clip-path:url(#SVGID_00000001663362611204886110000000452302833573546939_);fill:#49B5E6;" d="M84.62,153.28
				c-0.14-0.06-0.29-0.09-0.46-0.09c-0.16,0-0.32,0.03-0.46,0.09c-0.14,0.06-0.26,0.15-0.37,0.25c-0.11,0.11-0.19,0.23-0.25,0.37
				c-0.06,0.14-0.09,0.29-0.09,0.46c0,0.16,0.03,0.32,0.09,0.46c0.06,0.14,0.15,0.26,0.25,0.37s0.23,0.19,0.37,0.25
				c0.14,0.06,0.29,0.09,0.46,0.09c0.16,0,0.32-0.03,0.46-0.09c0.14-0.06,0.26-0.14,0.37-0.25c0.11-0.11,0.19-0.23,0.25-0.37
				c0.06-0.14,0.09-0.29,0.09-0.46c0-0.17-0.03-0.32-0.09-0.46c-0.06-0.14-0.14-0.26-0.25-0.37
				C84.88,153.43,84.76,153.34,84.62,153.28"/>
		</g>
		<rect x="89.11" y="152.17" class="st1" width="2.38" height="13.15"/>
		<g>
			<path class="st1" d="M95.14,164.12c0,0.43-0.03,0.8-0.1,1.12c-0.06,0.32-0.19,0.6-0.37,0.83c-0.18,0.24-0.44,0.43-0.77,0.59
				c-0.33,0.16-0.76,0.29-1.29,0.39l0.29,2.03c0.82-0.13,1.53-0.32,2.11-0.57c0.58-0.25,1.06-0.59,1.43-1.02
				c0.37-0.43,0.64-0.96,0.82-1.59c0.17-0.63,0.26-1.39,0.26-2.27v-5.84h-2.38V164.12z"/>
			<path class="st1" d="M105.28,163.28c-0.1,0.02-0.21,0.05-0.32,0.06c-0.11,0.02-0.23,0.03-0.35,0.05
				c-0.12,0.01-0.23,0.02-0.34,0.02c-0.39,0-0.72-0.05-1-0.15c-0.28-0.1-0.51-0.23-0.7-0.41c-0.18-0.17-0.32-0.39-0.41-0.63
				c-0.09-0.25-0.14-0.52-0.14-0.81c0-0.3,0.05-0.57,0.15-0.82c0.1-0.25,0.23-0.46,0.39-0.64c0.16-0.18,0.35-0.31,0.57-0.41
				c0.21-0.1,0.44-0.15,0.67-0.15c0.21,0,0.42,0.04,0.63,0.12c0.21,0.08,0.39,0.23,0.55,0.45c0.16,0.22,0.29,0.53,0.39,0.92
				c0.1,0.39,0.15,0.9,0.15,1.53v0.77C105.47,163.22,105.38,163.25,105.28,163.28 M106.02,167.77c0.6-0.45,1.06-1.02,1.4-1.72
				c0.33-0.7,0.5-1.57,0.5-2.6v-1.56c0-0.6-0.06-1.12-0.17-1.57c-0.11-0.45-0.27-0.84-0.46-1.17c-0.19-0.33-0.42-0.6-0.67-0.81
				c-0.25-0.21-0.52-0.38-0.8-0.51s-0.57-0.21-0.86-0.26c-0.29-0.05-0.57-0.07-0.84-0.07c-0.61,0-1.17,0.1-1.69,0.32
				c-0.52,0.21-0.98,0.5-1.37,0.87c-0.39,0.37-0.7,0.81-0.92,1.32c-0.22,0.51-0.34,1.06-0.34,1.66c0,0.42,0.08,0.84,0.23,1.28
				c0.15,0.44,0.4,0.83,0.73,1.19c0.34,0.36,0.77,0.65,1.31,0.87c0.54,0.23,1.18,0.34,1.95,0.34c0.18,0,0.39-0.01,0.65-0.04
				c0.26-0.03,0.5-0.06,0.73-0.11c-0.13,0.27-0.32,0.52-0.59,0.76c-0.26,0.23-0.58,0.45-0.94,0.63c-0.37,0.19-0.78,0.35-1.24,0.48
				c-0.46,0.13-0.96,0.23-1.49,0.29h-0.22l0.22,1.95c0.99-0.1,1.91-0.26,2.74-0.5C104.7,168.56,105.42,168.21,106.02,167.77"/>
			<path class="st1" d="M113.68,154.44h3.4v-1.11h-0.53c-0.38,0-0.66-0.08-0.84-0.23c-0.18-0.15-0.27-0.34-0.27-0.54
				s0.06-0.35,0.18-0.43c0.12-0.08,0.28-0.12,0.48-0.12c0.1,0,0.23,0.01,0.39,0.03c0.16,0.02,0.28,0.04,0.38,0.05l0.18-1.13
				c-0.21-0.04-0.4-0.06-0.56-0.07c-0.16-0.01-0.31-0.01-0.45-0.01c-0.32,0-0.6,0.04-0.84,0.12c-0.24,0.08-0.43,0.19-0.58,0.33
				c-0.15,0.14-0.26,0.29-0.33,0.47c-0.07,0.17-0.11,0.35-0.11,0.54c0,0.2,0.04,0.38,0.12,0.56c0.08,0.18,0.17,0.33,0.27,0.45h-0.9
				V154.44z"/>
			<path class="st1" d="M125.56,163.3h-2.12h-0.06h-0.01c-0.37,0-0.73-0.03-1.07-0.09c-0.35-0.06-0.67-0.15-0.97-0.27
				c0.01-0.1,0.02-0.21,0.03-0.32c0.01-0.11,0.01-0.21,0.01-0.33v-10.17H119v9.85c0,0.26-0.02,0.47-0.06,0.64
				c-0.04,0.17-0.11,0.31-0.2,0.41c-0.09,0.1-0.2,0.17-0.35,0.22c-0.14,0.04-0.32,0.06-0.52,0.06h-1.32v-8.05h-2.38v8.05h-3.98v2
				h8.49c0.46,0,0.84-0.07,1.16-0.2s0.59-0.32,0.8-0.55c0.33,0.23,0.71,0.41,1.14,0.54c0.43,0.14,0.95,0.21,1.56,0.21h0.04h0.06
				h4.49v-13.15h-2.38V163.3z"/>
			<path class="st1" d="M140.27,172.39c0.11-0.11,0.19-0.23,0.25-0.37c0.06-0.14,0.09-0.29,0.09-0.46c0-0.17-0.03-0.32-0.09-0.46
				c-0.06-0.14-0.14-0.26-0.25-0.37c-0.11-0.11-0.23-0.19-0.37-0.25c-0.14-0.06-0.29-0.09-0.46-0.09c-0.17,0-0.32,0.03-0.46,0.09
				c-0.14,0.06-0.26,0.15-0.37,0.25c-0.11,0.11-0.19,0.23-0.25,0.37c-0.06,0.14-0.09,0.29-0.09,0.46c0,0.16,0.03,0.32,0.09,0.46
				c0.06,0.14,0.15,0.26,0.25,0.37c0.11,0.11,0.23,0.19,0.37,0.25c0.14,0.06,0.29,0.09,0.46,0.09c0.16,0,0.32-0.03,0.46-0.09
				C140.04,172.58,140.16,172.49,140.27,172.39"/>
			<path class="st1" d="M141.73,172.64c0.14,0.06,0.29,0.09,0.46,0.09c0.16,0,0.32-0.03,0.46-0.09c0.14-0.06,0.26-0.14,0.37-0.25
				s0.19-0.23,0.25-0.37c0.06-0.14,0.09-0.29,0.09-0.46s-0.03-0.32-0.09-0.46c-0.06-0.14-0.15-0.26-0.25-0.37
				c-0.11-0.11-0.23-0.19-0.37-0.25c-0.14-0.06-0.29-0.09-0.46-0.09c-0.16,0-0.32,0.03-0.46,0.09c-0.14,0.06-0.26,0.14-0.37,0.25
				c-0.11,0.11-0.19,0.23-0.25,0.37c-0.06,0.14-0.09,0.29-0.09,0.46s0.03,0.32,0.09,0.46c0.06,0.14,0.14,0.26,0.25,0.37
				C141.46,172.49,141.59,172.58,141.73,172.64"/>
			<path class="st1" d="M165.37,169.01c0.14,0.06,0.29,0.09,0.46,0.09c0.17,0,0.32-0.03,0.46-0.09c0.14-0.06,0.26-0.14,0.37-0.25
				s0.19-0.23,0.25-0.37c0.06-0.14,0.09-0.29,0.09-0.46s-0.03-0.32-0.09-0.46c-0.06-0.14-0.15-0.26-0.25-0.37
				c-0.11-0.11-0.23-0.19-0.37-0.25c-0.14-0.06-0.29-0.09-0.46-0.09c-0.16,0-0.32,0.03-0.46,0.09c-0.14,0.06-0.26,0.14-0.37,0.25
				c-0.11,0.11-0.19,0.23-0.25,0.37c-0.06,0.14-0.09,0.29-0.09,0.46s0.03,0.32,0.09,0.46c0.06,0.14,0.14,0.26,0.25,0.37
				C165.11,168.87,165.23,168.95,165.37,169.01"/>
			<path class="st1" d="M179.68,163.3h-6.42c0.2-0.57,0.46-1.11,0.77-1.62c0.31-0.51,0.65-0.96,1.03-1.34
				c0.38-0.38,0.77-0.69,1.19-0.92c0.42-0.23,0.83-0.34,1.24-0.34c0.3,0,0.58,0.05,0.85,0.15c0.27,0.1,0.5,0.26,0.7,0.49
				c0.19,0.23,0.35,0.54,0.47,0.92c0.12,0.39,0.17,0.86,0.17,1.43V163.3z M181.04,158.5c-0.34-0.43-0.77-0.76-1.28-1.01
				c-0.52-0.24-1.12-0.37-1.83-0.37c-0.75,0-1.44,0.14-2.07,0.42c-0.63,0.28-1.21,0.65-1.73,1.1v-6.48h-2.38v9.47
				c-0.17,0.3-0.31,0.59-0.44,0.87c-0.13,0.28-0.25,0.55-0.34,0.8h-1.88H169H169c-0.37,0-0.73-0.03-1.08-0.09
				c-0.34-0.06-0.67-0.15-0.96-0.27c0.01-0.1,0.02-0.21,0.03-0.32c0.01-0.11,0.01-0.22,0.01-0.33v-4.48h-2.38v4.16
				c0,0.26-0.02,0.47-0.06,0.64c-0.04,0.17-0.11,0.31-0.2,0.41c-0.09,0.1-0.2,0.17-0.35,0.22c-0.14,0.04-0.32,0.06-0.52,0.06h-0.96
				h-0.07h-10.13c-0.16,0-0.3-0.02-0.42-0.05s-0.2-0.1-0.27-0.21c-0.07-0.11-0.12-0.26-0.15-0.46c-0.03-0.2-0.04-0.47-0.04-0.81
				v-3.97h-2.83c-1.42,0-2.48,0.32-3.16,0.97c-0.68,0.65-1.03,1.61-1.03,2.9v3.09c0,0.32-0.08,0.64-0.25,0.94
				c-0.17,0.31-0.4,0.58-0.72,0.81c-0.32,0.24-0.7,0.42-1.15,0.57c-0.45,0.14-0.96,0.21-1.53,0.21c-0.59,0-1.1-0.05-1.54-0.15
				c-0.43-0.1-0.8-0.23-1.12-0.4c-0.31-0.17-0.57-0.36-0.77-0.58c-0.2-0.22-0.35-0.45-0.47-0.68c-0.11-0.23-0.19-0.47-0.23-0.7
				c-0.04-0.24-0.06-0.45-0.06-0.65c0-0.23,0.02-0.46,0.06-0.7c0.04-0.24,0.09-0.48,0.16-0.71c0.07-0.23,0.16-0.45,0.26-0.66
				c0.1-0.21,0.21-0.4,0.33-0.56l-1.88-1.02c-0.19,0.24-0.36,0.5-0.53,0.8s-0.3,0.6-0.42,0.93c-0.12,0.33-0.21,0.67-0.28,1.02
				c-0.07,0.35-0.1,0.7-0.1,1.05c0,0.27,0.04,0.59,0.11,0.95c0.08,0.36,0.21,0.73,0.39,1.1c0.19,0.38,0.44,0.74,0.76,1.11
				c0.32,0.36,0.72,0.69,1.21,0.97c0.48,0.28,1.06,0.51,1.73,0.69c0.67,0.17,1.46,0.26,2.35,0.26c0.95,0,1.79-0.14,2.54-0.41
				c0.74-0.27,1.38-0.63,1.89-1.08c0.52-0.44,0.91-0.95,1.18-1.52c0.27-0.57,0.41-1.15,0.41-1.75v-2.74c0-0.45,0.05-0.82,0.15-1.09
				c0.1-0.28,0.25-0.49,0.44-0.65c0.19-0.16,0.42-0.26,0.7-0.31c0.28-0.05,0.59-0.08,0.93-0.08v2.74c0,0.52,0.08,0.96,0.24,1.32
				c0.16,0.36,0.37,0.65,0.63,0.88c0.26,0.23,0.56,0.39,0.89,0.5c0.33,0.1,0.67,0.16,1.01,0.16h10.65h0.07h1.78
				c0.46,0,0.84-0.07,1.16-0.2c0.32-0.13,0.58-0.32,0.8-0.55c0.33,0.23,0.71,0.41,1.14,0.54c0.43,0.14,0.95,0.21,1.56,0.21H169h0.07
				h12.97v-3.42c0-0.67-0.08-1.3-0.25-1.88C181.63,159.43,181.37,158.93,181.04,158.5"/>
			<path class="st1" d="M177.32,155.44c0.14,0.06,0.29,0.09,0.46,0.09c0.16,0,0.32-0.03,0.46-0.09c0.14-0.06,0.26-0.14,0.37-0.25
				s0.19-0.23,0.25-0.37c0.06-0.14,0.09-0.29,0.09-0.46s-0.03-0.32-0.09-0.46c-0.06-0.14-0.15-0.26-0.25-0.37
				c-0.11-0.11-0.23-0.19-0.37-0.25c-0.14-0.06-0.29-0.09-0.46-0.09c-0.16,0-0.32,0.03-0.46,0.09c-0.14,0.06-0.26,0.14-0.37,0.25
				c-0.11,0.11-0.19,0.23-0.25,0.37c-0.06,0.14-0.09,0.29-0.09,0.46s0.03,0.32,0.09,0.46c0.06,0.14,0.15,0.26,0.25,0.37
				S177.18,155.38,177.32,155.44"/>
			<path class="st1" d="M189.88,163.3h-1.3c-0.77,0-1.33-0.17-1.69-0.51c-0.36-0.34-0.53-0.8-0.53-1.39c0-0.3,0.05-0.57,0.15-0.82
				c0.1-0.25,0.23-0.46,0.4-0.64c0.16-0.18,0.35-0.31,0.57-0.41c0.22-0.1,0.44-0.15,0.67-0.15c0.21,0,0.42,0.04,0.63,0.12
				c0.21,0.08,0.39,0.23,0.55,0.45c0.16,0.22,0.29,0.53,0.39,0.92c0.1,0.39,0.15,0.9,0.15,1.53V163.3z M193.9,165.31h4.65v-7.5
				h-2.38v5.5h-2.27h-0.07h-1.58v-1.42c0-0.6-0.06-1.12-0.17-1.57c-0.11-0.45-0.26-0.84-0.46-1.17c-0.19-0.33-0.41-0.6-0.66-0.81
				c-0.25-0.21-0.52-0.38-0.8-0.51c-0.28-0.12-0.57-0.21-0.86-0.26c-0.29-0.05-0.57-0.07-0.84-0.07c-0.66,0-1.25,0.11-1.79,0.34
				c-0.53,0.23-0.98,0.53-1.36,0.91s-0.66,0.82-0.87,1.33c-0.2,0.5-0.31,1.03-0.31,1.59c0,0.41,0.08,0.84,0.23,1.27
				c0.16,0.43,0.41,0.83,0.76,1.18s0.81,0.64,1.38,0.86c0.57,0.22,1.26,0.33,2.09,0.33h1.11c-0.15,0.26-0.36,0.5-0.64,0.73
				c-0.27,0.23-0.59,0.43-0.97,0.62c-0.38,0.18-0.8,0.34-1.28,0.46c-0.47,0.12-0.99,0.2-1.56,0.24l0.22,1.96
				c0.78-0.08,1.52-0.22,2.23-0.43c0.71-0.21,1.35-0.48,1.92-0.81c0.58-0.34,1.08-0.73,1.5-1.19c0.42-0.46,0.74-0.98,0.96-1.57h1.73
				H193.9z"/>
			<path class="st1" d="M198.25,166.86c-0.14-0.06-0.29-0.09-0.46-0.09c-0.16,0-0.32,0.03-0.46,0.09c-0.14,0.06-0.26,0.15-0.37,0.25
				c-0.11,0.11-0.19,0.23-0.25,0.37c-0.06,0.14-0.09,0.29-0.09,0.46c0,0.16,0.03,0.32,0.09,0.46c0.06,0.14,0.14,0.26,0.25,0.37
				s0.23,0.19,0.37,0.25c0.14,0.06,0.29,0.09,0.46,0.09c0.16,0,0.32-0.03,0.46-0.09c0.14-0.06,0.26-0.14,0.37-0.25
				s0.19-0.23,0.25-0.37c0.06-0.14,0.09-0.29,0.09-0.46c0-0.17-0.03-0.32-0.09-0.46c-0.06-0.14-0.15-0.26-0.25-0.37
				C198.51,167,198.39,166.92,198.25,166.86"/>
			<path class="st1" d="M203.82,149.69h-0.53c-0.38,0-0.66-0.08-0.84-0.23c-0.18-0.15-0.27-0.34-0.27-0.54
				c0-0.21,0.06-0.35,0.18-0.43c0.12-0.08,0.28-0.12,0.48-0.12c0.1,0,0.23,0.01,0.39,0.03c0.15,0.02,0.28,0.04,0.38,0.05l0.18-1.12
				c-0.21-0.04-0.4-0.06-0.56-0.07c-0.16-0.01-0.31-0.01-0.45-0.01c-0.32,0-0.6,0.04-0.84,0.12c-0.23,0.08-0.43,0.19-0.58,0.33
				c-0.15,0.14-0.26,0.29-0.33,0.47c-0.07,0.17-0.1,0.35-0.1,0.54c0,0.2,0.04,0.38,0.12,0.56c0.08,0.18,0.17,0.33,0.27,0.45h-0.9
				v1.11h3.41V149.69z"/>
		</g>
		<rect x="200.94" y="152.17" class="st1" width="2.38" height="13.15"/>
		<g>
			<path class="st1" d="M218.87,153.53c-0.11,0.11-0.19,0.23-0.25,0.37c-0.06,0.14-0.09,0.29-0.09,0.46c0,0.16,0.03,0.32,0.09,0.46
				c0.06,0.14,0.14,0.26,0.25,0.37c0.11,0.11,0.23,0.19,0.37,0.25c0.14,0.06,0.29,0.09,0.46,0.09c0.17,0,0.32-0.03,0.46-0.09
				c0.14-0.06,0.26-0.15,0.37-0.25c0.11-0.11,0.19-0.23,0.25-0.37c0.06-0.14,0.09-0.29,0.09-0.46c0-0.17-0.03-0.32-0.09-0.46
				c-0.06-0.14-0.15-0.26-0.25-0.37c-0.11-0.11-0.23-0.19-0.37-0.25c-0.14-0.06-0.29-0.09-0.46-0.09c-0.16,0-0.32,0.03-0.46,0.09
				C219.1,153.34,218.98,153.43,218.87,153.53"/>
			<path class="st1" d="M217.41,153.28c-0.14-0.06-0.29-0.09-0.46-0.09c-0.16,0-0.32,0.03-0.46,0.09c-0.14,0.06-0.26,0.15-0.37,0.25
				c-0.11,0.11-0.19,0.23-0.25,0.37c-0.06,0.14-0.09,0.29-0.09,0.46c0,0.16,0.03,0.32,0.09,0.46c0.06,0.14,0.15,0.26,0.25,0.37
				c0.11,0.11,0.23,0.19,0.37,0.25c0.14,0.06,0.29,0.09,0.46,0.09c0.16,0,0.32-0.03,0.46-0.09c0.14-0.06,0.26-0.14,0.37-0.25
				s0.19-0.23,0.25-0.37c0.06-0.14,0.09-0.29,0.09-0.46c0-0.17-0.03-0.32-0.09-0.46c-0.06-0.14-0.15-0.26-0.25-0.37
				C217.68,153.43,217.55,153.34,217.41,153.28"/>
			<path class="st1" d="M220.08,163.12c-0.07,0.03-0.15,0.06-0.25,0.08c-0.1,0.02-0.21,0.04-0.32,0.06
				c-0.11,0.02-0.23,0.03-0.35,0.05c-0.12,0.01-0.23,0.02-0.34,0.02c-0.38,0-0.7-0.05-0.97-0.16c-0.27-0.1-0.5-0.24-0.67-0.42
				c-0.17-0.18-0.3-0.38-0.38-0.62c-0.08-0.23-0.12-0.48-0.12-0.73c0-0.3,0.04-0.57,0.13-0.82c0.09-0.25,0.21-0.46,0.36-0.64
				c0.15-0.18,0.33-0.31,0.53-0.41c0.21-0.1,0.42-0.15,0.66-0.15c0.21,0,0.42,0.04,0.63,0.12c0.21,0.08,0.39,0.23,0.55,0.45
				c0.16,0.22,0.29,0.53,0.39,0.92c0.1,0.39,0.15,0.9,0.15,1.53V163.12z M222.46,164.56v-2.67c0-0.6-0.06-1.12-0.17-1.57
				c-0.11-0.45-0.27-0.84-0.46-1.17c-0.19-0.33-0.41-0.6-0.67-0.81c-0.25-0.21-0.52-0.38-0.8-0.51c-0.28-0.12-0.57-0.21-0.86-0.26
				c-0.29-0.05-0.57-0.07-0.84-0.07c-0.66,0-1.26,0.1-1.79,0.31c-0.53,0.21-0.99,0.49-1.36,0.86c-0.38,0.36-0.66,0.79-0.87,1.28
				c-0.2,0.49-0.3,1.02-0.3,1.58c0,0.45,0.08,0.9,0.23,1.36c0.15,0.46,0.4,0.86,0.73,1.23c0.33,0.36,0.77,0.66,1.3,0.89
				c0.53,0.23,1.19,0.34,1.95,0.34c0.21,0,0.45-0.01,0.72-0.04c0.27-0.02,0.54-0.08,0.81-0.16c0,0.65-0.11,1.22-0.32,1.7
				c-0.22,0.48-0.51,0.88-0.89,1.19c-0.38,0.32-0.82,0.55-1.34,0.71c-0.52,0.16-1.07,0.23-1.66,0.23c-0.63,0-1.18-0.08-1.65-0.25
				c-0.47-0.16-0.87-0.39-1.18-0.69c-0.32-0.29-0.56-0.64-0.71-1.05c-0.16-0.41-0.24-0.85-0.24-1.33c0-0.23,0.02-0.46,0.05-0.69
				c0.03-0.23,0.07-0.47,0.13-0.7c0.05-0.23,0.12-0.45,0.21-0.65c0.08-0.2,0.18-0.39,0.28-0.55l-1.89-1.08
				c-0.18,0.27-0.34,0.57-0.49,0.89c-0.15,0.32-0.28,0.65-0.39,0.99c-0.11,0.34-0.2,0.68-0.26,1.02c-0.06,0.34-0.09,0.66-0.09,0.98
				c0,0.74,0.13,1.43,0.39,2.05c0.26,0.62,0.65,1.16,1.16,1.61c0.51,0.45,1.15,0.8,1.92,1.05c0.77,0.25,1.65,0.38,2.66,0.38
				c0.95,0,1.84-0.14,2.66-0.41c0.82-0.27,1.53-0.68,2.13-1.21c0.6-0.54,1.07-1.21,1.42-2.01
				C222.29,166.53,222.46,165.61,222.46,164.56"/>
			<path class="st1" d="M230.3,163.3H229c-0.77,0-1.33-0.17-1.69-0.51c-0.36-0.34-0.54-0.8-0.54-1.39c0-0.3,0.05-0.57,0.15-0.82
				c0.1-0.25,0.23-0.46,0.4-0.64c0.16-0.18,0.35-0.31,0.57-0.41c0.22-0.1,0.44-0.15,0.67-0.15c0.21,0,0.42,0.04,0.63,0.12
				c0.21,0.08,0.39,0.23,0.55,0.45c0.16,0.22,0.29,0.53,0.39,0.92c0.1,0.39,0.15,0.9,0.15,1.53V163.3z M257.31,163.3h-0.68
				c-0.5,0-0.93-0.05-1.32-0.14c-0.38-0.09-0.73-0.23-1.05-0.41c0.01-0.07,0.01-0.15,0.01-0.23c0-0.08,0-0.15,0-0.23v-3.5h-2.38
				v3.18c0,0.26-0.02,0.47-0.06,0.64c-0.04,0.17-0.11,0.31-0.2,0.41c-0.09,0.1-0.21,0.17-0.35,0.22c-0.14,0.04-0.32,0.06-0.52,0.06
				c-0.31,0-0.63-0.05-0.96-0.15c-0.33-0.1-0.66-0.24-1-0.43c0.01-0.07,0.02-0.14,0.02-0.21v-0.22v-2.67h-2.38v2.35
				c0,0.26-0.02,0.47-0.06,0.64c-0.04,0.17-0.11,0.31-0.2,0.41c-0.09,0.1-0.21,0.17-0.35,0.22c-0.14,0.04-0.32,0.06-0.52,0.06h-1.82
				h-0.07h-10.77v-1.42c0-0.6-0.06-1.12-0.17-1.57c-0.11-0.45-0.27-0.84-0.46-1.17c-0.19-0.33-0.41-0.6-0.66-0.81
				c-0.25-0.21-0.52-0.38-0.8-0.51c-0.28-0.12-0.57-0.21-0.86-0.26c-0.29-0.05-0.57-0.07-0.84-0.07c-0.66,0-1.25,0.11-1.79,0.34
				c-0.53,0.23-0.98,0.53-1.36,0.91c-0.38,0.38-0.67,0.82-0.87,1.33c-0.2,0.5-0.31,1.03-0.31,1.59c0,0.41,0.08,0.84,0.23,1.27
				c0.16,0.43,0.41,0.83,0.76,1.18c0.35,0.35,0.81,0.64,1.38,0.86c0.57,0.22,1.26,0.33,2.09,0.33h1.11
				c-0.15,0.26-0.36,0.5-0.64,0.73c-0.27,0.23-0.6,0.43-0.97,0.62c-0.38,0.18-0.8,0.34-1.28,0.46c-0.48,0.12-0.99,0.2-1.56,0.24
				l0.22,1.96c0.78-0.08,1.52-0.22,2.23-0.43c0.71-0.21,1.35-0.48,1.92-0.81c0.58-0.34,1.08-0.73,1.5-1.19
				c0.42-0.46,0.75-0.98,0.96-1.56h10.91h0.07h2.64c0.52,0,0.95-0.09,1.29-0.26c0.34-0.17,0.62-0.4,0.83-0.69
				c0.36,0.28,0.78,0.51,1.28,0.68c0.49,0.18,1.04,0.26,1.65,0.26h0.4c0.52,0,0.95-0.08,1.29-0.25c0.34-0.17,0.61-0.39,0.82-0.67
				c0.37,0.27,0.8,0.5,1.32,0.67c0.51,0.17,1.1,0.26,1.78,0.26h2.92v-7.5h-2.4V163.3z"/>
		</g>
	</g>
</g>
</svg>
